<mxfile host="app.diagrams.net" modified="2023-11-10T11:38:56.949Z" agent="Mozilla/5.0 (Windows NT 10.0; Win64; x64) AppleWebKit/537.36 (KHTML, like Gecko) Chrome/119.0.0.0 Safari/537.36" version="22.1.0" etag="Xp1oFyx5109fxl29Hret" type="github">
  <diagram name="PÃ¡gina-1" id="MbdutuZgf85Kj_yESS8o">
    <mxGraphModel>
      <root>
        <mxCell id="0" />
        <mxCell id="1" parent="0" />
      </root>
    </mxGraphModel>
  </diagram>
</mxfile>
